# xmcd CD database file
#
# Track frame offsets:
#	150
#	18732
#	40378
#	61795
#
# Disc length: 1201 seconds
#
# Revision: 2
# Processed by: cddbd v1.5.2PL0 Copyright (c) Steve Scherf et al.
# Submitted via: CDex 1.70beta2
#
DISCID=2e04af04
DTITLE=Zucchero Fornaciari - Baila (Sexy Thing)
DYEAR=2001
DGENRE=Blues
TTITLE0=Baila (Sexy Thing)
TTITLE1=Hey Man (Duet With B.B. King)
TTITLE2=Karma, Stai Karma (Featuring Irene Fornaciari)
TTITLE3=Baila (sexy thing) a Charlie Rapino Club Mix
EXTD=CD single YEAR: 2001
EXTT0=
EXTT1=
EXTT2=
EXTT3=
PLAYORDER=
